<?xml version="1.0" encoding="UTF-8" standalone="no" ?>
<!DOCTYPE svg PUBLIC "-//W3C//DTD SVG 1.1//EN" "http://www.w3.org/Graphics/SVG/1.1/DTD/svg11.dtd">
<svg xmlns="http://www.w3.org/2000/svg" xmlns:xlink="http://www.w3.org/1999/xlink" version="1.1" width="500" height="500" viewBox="0 0 500 500" xml:space="preserve">
<desc>Created with Fabric.js 4.6.0</desc>
<defs>
</defs>
<g transform="matrix(1 0 0 1 250.25 250.25)" id="ES_LTp-0c9MVtoQHzPUOb"  >
<g style="" vector-effect="non-scaling-stroke"   >
		<g transform="matrix(1 0 0 1 0 0)" id="VRaANpCViUqrQKRYZcWSC"  >
<path style="stroke: rgb(0,0,0); stroke-width: 0; stroke-dasharray: none; stroke-linecap: butt; stroke-dashoffset: 0; stroke-linejoin: miter; stroke-miterlimit: 4; fill: rgb(0,0,0); fill-rule: nonzero; opacity: 1;" vector-effect="non-scaling-stroke"  transform=" translate(-250, -250)" d="M 250 0 C 388 0 500 112 500 250 C 500 388 388 500 250 500 C 112 500 0 388 0 250 C 0 112 112 0 250 0 z" stroke-linecap="round" />
</g>
		<g transform="matrix(1 0 0 1 -0.25 -0.25)" id="JUSIgwZC88XoOW_RsmFu1"  >
<path style="stroke: none; stroke-width: 1; stroke-dasharray: none; stroke-linecap: butt; stroke-dashoffset: 0; stroke-linejoin: miter; stroke-miterlimit: 4; fill: rgb(32,129,226); fill-rule: nonzero; opacity: 1;" vector-effect="non-scaling-stroke"  transform=" translate(-215, -215)" d="M 430 215 C 430 333.73454 333.73454 430 215 430 C 96.26546 430 0 333.73454 0 215 C 0 96.26546 96.26546 0 215 0 C 333.75962 0 430 96.26546 430 215 z" stroke-linecap="round" />
</g>
		<g transform="matrix(4.55 0 0 4.55 -76.1 -38.56)" id="qGYXiysOhdr-pa0-bYI2J"  >
<path style="stroke: none; stroke-width: 1; stroke-dasharray: none; stroke-linecap: butt; stroke-dashoffset: 0; stroke-linejoin: miter; stroke-miterlimit: 4; fill: rgb(255,255,255); fill-rule: nonzero; opacity: 1;" vector-effect="non-scaling-stroke"  transform=" translate(-33.33, -41.58)" d="M 24.6679 51.6801 L 24.8836 51.341 L 37.8906 30.9932 C 38.0807 30.6953 38.5276 30.7261 38.6714 31.0497 C 40.8444 35.9196 42.7194 41.9762 41.841 45.7468 C 41.466 47.2982 40.4386 49.3992 39.2827 51.341 C 39.1338 51.6236 38.9694 51.901 38.7947 52.1681 C 38.7125 52.2914 38.5738 52.3633 38.4248 52.3633 L 25.048 52.3633 C 24.6884 52.3633 24.4778 51.9729 24.6679 51.6801 Z" stroke-linecap="round" />
</g>
		<g transform="matrix(4.55 0 0 4.55 8.03 -10.53)" id="QPzlnegMf3X-2GQijZWqR"  >
<path style="stroke: none; stroke-width: 1; stroke-dasharray: none; stroke-linecap: butt; stroke-dashoffset: 0; stroke-linejoin: miter; stroke-miterlimit: 4; fill: rgb(255,255,255); fill-rule: nonzero; opacity: 1;" vector-effect="non-scaling-stroke"  transform=" translate(-51.82, -47.74)" d="M 82.6444 55.461 L 82.6444 58.6819 C 82.6444 58.8668 82.5314 59.0312 82.367 59.1031 C 81.3602 59.5346 77.9132 61.1168 76.48 63.11 C 72.8224 68.2008 70.0279 75.48 63.7812 75.48 L 37.721 75.48 C 28.4847 75.48 21 67.9697 21 58.7024 L 21 58.4045 C 21 58.1579 21.2003 57.9576 21.4469 57.9576 L 35.9745 57.9576 C 36.2621 57.9576 36.4727 58.2247 36.4471 58.5072 C 36.3443 59.4524 36.519 60.4182 36.9659 61.2966 C 37.8289 63.0484 39.6166 64.1426 41.5481 64.1426 L 48.74 64.1426 L 48.74 58.5278 L 41.6303 58.5278 C 41.2656 58.5278 41.0499 58.1065 41.2605 57.8086 C 41.3375 57.6904 41.4249 57.5672 41.5173 57.4285 C 42.1903 56.473 43.1509 54.9884 44.1064 53.2983 C 44.7588 52.1579 45.3906 50.9404 45.8992 49.7178 C 46.002 49.4969 46.0841 49.2708 46.1663 49.0499 C 46.305 48.6595 46.4489 48.2948 46.5516 47.9301 C 46.6544 47.6218 46.7365 47.2982 46.8187 46.9951 C 47.0602 45.9574 47.1629 44.8581 47.1629 43.7177 C 47.1629 43.2708 47.1424 42.8033 47.1013 42.3564 C 47.0807 41.8684 47.0191 41.3803 46.9574 40.8923 C 46.9163 40.4608 46.8393 40.0344 46.7571 39.5875 C 46.6544 38.9351 46.5105 38.2879 46.3461 37.6354 L 46.2896 37.3889 C 46.1663 36.9419 46.0636 36.5156 45.9198 36.0687 C 45.5139 34.6662 45.0465 33.2998 44.5533 32.0207 C 44.3735 31.5121 44.168 31.0241 43.9625 30.5361 C 43.6595 29.8015 43.3512 29.1337 43.0687 28.5018 C 42.9249 28.2141 42.8016 27.9521 42.6783 27.685 C 42.5396 27.3819 42.3958 27.0788 42.2519 26.7912 C 42.1492 26.5703 42.031 26.3648 41.9488 26.1593 L 41.0704 24.536 C 40.9471 24.3151 41.1526 24.0531 41.394 24.1199 L 46.8907 25.6096 L 46.9061 25.6096 C 46.9163 25.6096 46.9215 25.6148 46.9266 25.6148 L 47.6509 25.8151 L 48.4472 26.0412 L 48.74 26.1233 L 48.74 22.8562 C 48.74 21.2791 50.0037 20 51.5654 20 C 52.3462 20 53.0551 20.3185 53.5637 20.8373 C 54.0722 21.3562 54.3907 22.0651 54.3907 22.8562 L 54.3907 27.7056 L 54.9764 27.8699 C 55.0226 27.8854 55.0688 27.9059 55.1099 27.9367 C 55.2538 28.0446 55.4592 28.2038 55.7212 28.3991 C 55.9267 28.5634 56.1476 28.7638 56.4147 28.9693 C 56.9438 29.3956 57.5757 29.9453 58.2692 30.5772 C 58.4541 30.7364 58.6339 30.9008 58.7983 31.0652 C 59.6922 31.8974 60.6939 32.8734 61.6494 33.9522 C 61.9165 34.2553 62.1785 34.5635 62.4456 34.8871 C 62.7127 35.2159 62.9953 35.5395 63.2418 35.8632 C 63.5655 36.2947 63.9148 36.7416 64.2179 37.2091 C 64.3617 37.43 64.5261 37.656 64.6648 37.8769 C 65.0552 38.4676 65.3994 39.079 65.7282 39.6903 C 65.8669 39.9728 66.0107 40.281 66.134 40.5841 C 66.4987 41.4009 66.7864 42.2331 66.9713 43.0653 C 67.0278 43.2451 67.0689 43.4403 67.0895 43.615 L 67.0895 43.6561 C 67.1511 43.9026 67.1717 44.1646 67.1922 44.4317 C 67.2744 45.2845 67.2333 46.1372 67.0484 46.9951 C 66.9713 47.3599 66.8686 47.704 66.7453 48.0688 C 66.622 48.4181 66.4987 48.7828 66.3395 49.127 C 66.0313 49.841 65.6665 50.5551 65.235 51.2229 C 65.0963 51.4695 64.9319 51.7315 64.7675 51.9781 C 64.5877 52.24 64.4028 52.4866 64.2384 52.7281 C 64.0124 53.0363 63.771 53.3599 63.5244 53.6476 C 63.3035 53.9507 63.0775 54.2538 62.8309 54.5209 C 62.4867 54.9267 62.1579 55.312 61.8137 55.6819 C 61.6083 55.9233 61.3874 56.1699 61.1613 56.3908 C 60.9405 56.6373 60.7144 56.8582 60.5089 57.0637 C 60.1648 57.4079 59.8771 57.675 59.6356 57.8959 L 59.0706 58.4148 C 58.9884 58.4867 58.8805 58.5278 58.7675 58.5278 L 54.3907 58.5278 L 54.3907 64.1426 L 59.8976 64.1426 C 61.1305 64.1426 62.3018 63.7059 63.247 62.9045 C 63.5706 62.622 64.9833 61.3994 66.6528 59.5552 C 66.7093 59.4935 66.7813 59.4473 66.8635 59.4268 L 82.0742 55.0295 C 82.3568 54.9473 82.6444 55.163 82.6444 55.461 Z" stroke-linecap="round" />
</g>
		<g transform="matrix(0.71 0.71 -0.71 0.71 8.03 -0.25)" id="6C6ZNAoc37dpNnKBAc38o"  >
<path style="stroke: rgb(0,0,0); stroke-width: 0; stroke-dasharray: none; stroke-linecap: butt; stroke-dashoffset: 0; stroke-linejoin: miter; stroke-miterlimit: 4; fill: rgb(0,0,0); fill-rule: nonzero; opacity: 1;" vector-effect="non-scaling-stroke"  transform=" translate(-17.5, -241)" d="M 0 0 L 35 0 L 35 482 L 0 482 z" stroke-linecap="round" />
</g>
</g>
</g>
</svg>